<?xml version="1.0" standalone="no"?>
<!DOCTYPE svg PUBLIC "-//W3C//DTD SVG 20010904//EN"
 "http://www.w3.org/TR/2001/REC-SVG-20010904/DTD/svg10.dtd">
<svg version="1.0" xmlns="http://www.w3.org/2000/svg"
 width="57.000000pt" height="51.000000pt" viewBox="0 0 57.000000 51.000000"
 preserveAspectRatio="xMidYMid meet">

<g transform="translate(0.000000,51.000000) scale(0.100000,-0.100000)"
fill="#000000" stroke="none">
<path d="M151 385 c-82 -85 -91 -98 -91 -132 0 -34 9 -47 87 -126 134 -137
150 -137 282 -2 83 84 91 96 91 131 0 35 -7 46 -95 131 -90 89 -97 93 -138 93
-42 0 -48 -4 -136 -95z m253 -44 c77 -77 79 -81 66 -106 -23 -44 -156 -165
-181 -165 -15 0 -50 28 -106 85 -45 46 -83 90 -83 96 0 16 150 169 175 179 28
11 39 3 129 -89z"/>
<path d="M233 264 c-36 -28 -44 -64 -15 -64 11 0 27 9 37 20 24 27 47 25 75
-5 18 -19 26 -22 37 -14 21 18 15 35 -21 63 -43 33 -72 33 -113 0z"/>
</g>
</svg>
